<?xml version="1.0" standalone="no"?><!-- Generator: Gravit.io --><svg xmlns="http://www.w3.org/2000/svg" xmlns:xlink="http://www.w3.org/1999/xlink" style="isolation:isolate" viewBox="458 262.5 75 75" width="75" height="75"><path d=" M 530.9166666666666 270.8333333333333 L 497.5833333333333 270.8333333333333 L 497.5833333333333 329.1666666666667 L 530.9166666666666 329.1666666666667 C 532.06875 329.1666666666667 533 328.23541666666665 533 327.08333333333337 L 533 272.9166666666667 C 533 271.76458333333335 532.06875 270.8333333333333 530.9166666666666 270.8333333333333 Z " fill="rgb(76,175,80)" stroke-width="2.083333333333334" stroke="rgba(0,0,0,0)" stroke-linejoin="miter" stroke-linecap="butt"/><rect x="512.1666666666667" y="281.25" width="14.583333333333258" height="6.25" transform="matrix(1,0,0,1,0,0)" fill="rgb(255,255,255)" stroke-width="2.083333333333334" stroke="rgba(0,0,0,0)" stroke-linejoin="miter" stroke-linecap="butt"/><rect x="512.1666666666667" y="302.0833333333333" width="14.583333333333258" height="6.25" transform="matrix(1,0,0,1,0,0)" fill="rgb(255,255,255)" stroke-width="2.083333333333334" stroke="rgba(0,0,0,0)" stroke-linejoin="miter" stroke-linecap="butt"/><rect x="512.1666666666667" y="312.5" width="14.583333333333258" height="6.25" transform="matrix(1,0,0,1,0,0)" fill="rgb(255,255,255)" stroke-width="2.083333333333334" stroke="rgba(0,0,0,0)" stroke-linejoin="miter" stroke-linecap="butt"/><rect x="512.1666666666667" y="291.6666666666667" width="14.583333333333258" height="6.25" transform="matrix(1,0,0,1,0,0)" fill="rgb(255,255,255)" stroke-width="2.083333333333334" stroke="rgba(0,0,0,0)" stroke-linejoin="miter" stroke-linecap="butt"/><rect x="497.58333333333337" y="281.25" width="10.416666666666629" height="6.25" transform="matrix(1,0,0,1,0,0)" fill="rgb(255,255,255)" stroke-width="2.083333333333334" stroke="rgba(0,0,0,0)" stroke-linejoin="miter" stroke-linecap="butt"/><rect x="497.58333333333337" y="302.0833333333333" width="10.416666666666629" height="6.25" transform="matrix(1,0,0,1,0,0)" fill="rgb(255,255,255)" stroke-width="2.083333333333334" stroke="rgba(0,0,0,0)" stroke-linejoin="miter" stroke-linecap="butt"/><rect x="497.58333333333337" y="312.5" width="10.416666666666629" height="6.25" transform="matrix(1,0,0,1,0,0)" fill="rgb(255,255,255)" stroke-width="2.083333333333334" stroke="rgba(0,0,0,0)" stroke-linejoin="miter" stroke-linecap="butt"/><rect x="497.58333333333337" y="291.6666666666667" width="10.416666666666629" height="6.25" transform="matrix(1,0,0,1,0,0)" fill="rgb(255,255,255)" stroke-width="2.083333333333334" stroke="rgba(0,0,0,0)" stroke-linejoin="miter" stroke-linecap="butt"/><path d=" M 501.75 337.5 L 458 329.1666666666667 L 458 270.8333333333333 L 501.75 262.5 L 501.75 337.5 Z " fill="rgb(46,125,50)" stroke-width="2.083333333333334" stroke="rgba(0,0,0,0)" stroke-linejoin="miter" stroke-linecap="butt"/><path d=" M 485.3520833333333 314.58333333333337 L 480.32916666666665 305.08125 C 480.1375 304.725 479.94166666666666 304.075 479.7375 303.12708333333336 L 479.66041666666666 303.12708333333336 C 479.56458333333336 303.575 479.33958333333334 304.25416666666666 478.98541666666665 305.1666666666667 L 473.94166666666666 314.58333333333337 L 466.1145833333333 314.58333333333337 L 475.41041666666666 299.9979166666667 L 466.90416666666664 285.4166666666667 L 474.8979166666667 285.4166666666667 L 479.06666666666666 294.1583333333333 C 479.39166666666665 294.84791666666666 479.68333333333334 295.66875 479.94166666666666 296.6145833333333 L 480.025 296.6145833333333 C 480.1875 296.05 480.4916666666667 295.1979166666667 480.9395833333333 294.0729166666667 L 485.57708333333335 285.4166666666667 L 492.9 285.4166666666667 L 484.15208333333334 299.8729166666667 L 493.14375 314.57916666666665 L 485.3520833333333 314.57916666666665 L 485.3520833333333 314.58333333333337 Z " fill="rgb(255,255,255)" stroke-width="2.083333333333334" stroke="rgba(0,0,0,0)" stroke-linejoin="miter" stroke-linecap="butt"/></svg>