<?xml version="1.0" standalone="no"?><!-- Generator: Gravit.io --><svg xmlns="http://www.w3.org/2000/svg" xmlns:xlink="http://www.w3.org/1999/xlink" style="isolation:isolate" viewBox="16 11.133376288659793 99.17697594501719 31.733247422680417" width="99.17697594501719" height="31.733247422680417"><path d=" M 43 36.925707420532646 L 16 36.925707420532646 L 16 27.92570742053265 L 23.5 16.675707420532653 L 34 21.925707420532653 L 43 13.675707420532653 L 43 36.925707420532646 Z " fill="rgb(63,81,181)" stroke-width="2.083333333333334" stroke="rgba(0,0,0,0)" stroke-linejoin="miter" stroke-linecap="butt"/><path d=" M 43 40.675707420532646 L 16 40.675707420532646 L 16 33.175707420532646 L 23.5 27.17570742053265 L 34 28.67570742053265 L 43 21.925707420532653 L 43 40.675707420532646 Z " fill="rgb(0,188,212)" stroke-width="2.083333333333334" stroke="rgba(0,0,0,0)" stroke-linejoin="miter" stroke-linecap="butt"/><path d=" M 55.12577185352234 20.5607952104811 Q 54.98032780283505 22.10117992912371 53.98866382087629 22.963927593427833 Q 52.996999838917525 23.826675257731956 51.350837628865975 23.826675257731956 Q 50.200507409793815 23.826675257731956 49.32453755906357 23.28126006765464 Q 48.448567708333336 22.73584487757732 47.972568996993125 21.73095870919244 Q 47.49657028565292 20.72607254080756 47.47673700601374 19.397242804982817 L 47.47673700601374 18.498134128006875 Q 47.47673700601374 17.13624892611684 47.95934681056701 16.098307291666664 Q 48.441956615120276 15.060365657216494 49.34437083870275 14.498422734106528 Q 50.24678506228522 13.936479810996563 51.43017074742268 13.936479810996563 Q 53.02344421176976 13.936479810996563 53.99527491408935 14.802533021907216 Q 54.967105616408936 15.66858623281787 55.12577185352234 17.24863751073883 L 53.459776363831615 17.24863751073883 Q 53.34077668599656 16.21069587628866 52.85486133483677 15.7512248979811 Q 52.36894598367697 15.291753919673539 51.43017074742268 15.291753919673539 Q 50.33934036726804 15.291753919673539 49.75425861791237 16.088390651847078 Q 49.1691768685567 16.885027384020617 49.155954682130584 18.42541210266323 L 49.155954682130584 19.278243127147768 Q 49.155954682130584 20.838461125429554 49.71459205863402 21.6582366838488 Q 50.27322943513746 22.478012242268044 51.350837628865975 22.478012242268044 Q 52.33589051761168 22.478012242268044 52.831722508591064 22.035068996993125 Q 53.32755449957045 21.592125751718214 53.459776363831615 20.5607952104811 L 55.12577185352234 20.5607952104811 Z  M 56.16371348797251 20.0517410330756 Q 56.16371348797251 19.00057721219931 56.58021236039519 18.157662827534363 Q 56.99671123281787 17.314748442869416 57.750375859106526 16.861888557774915 Q 58.50404048539519 16.409028672680414 59.48248228092783 16.409028672680414 Q 60.93031169458763 16.409028672680414 61.832725918170105 17.341192815721648 Q 62.73514014175258 18.273356958762886 62.80786216709622 19.813741677405496 L 62.81447326030928 20.19057399054983 Q 62.81447326030928 21.248348904639172 62.407891027706185 22.081346649484537 Q 62.00130879510309 22.914344394329895 61.244338622207906 23.370509826030926 Q 60.48736844931271 23.826675257731956 59.49570446735395 23.826675257731956 Q 57.98176412156357 23.826675257731956 57.072738804768036 22.81848354274055 Q 56.16371348797251 21.81029182774914 56.16371348797251 20.131074151632305 L 56.16371348797251 20.0517410330756 Z  M 57.770209138745706 20.19057399054983 Q 57.770209138745706 21.294626557130584 58.22637457044674 21.919374865764603 Q 58.68254000214777 22.544123174398628 59.49570446735395 22.544123174398628 Q 60.30886893256014 22.544123174398628 60.76172881765464 21.909458225945016 Q 61.21458870274914 21.27479327749141 61.21458870274914 20.0517410330756 Q 61.21458870274914 18.967521746134018 60.74850663122852 18.332856797680414 Q 60.282424559707906 17.698191849226802 59.48248228092783 17.698191849226802 Q 58.69576218857388 17.698191849226802 58.23298566365979 18.322940157860824 Q 57.770209138745706 18.947688466494846 57.770209138745706 20.19057399054983 Z  M 65.68368771477662 16.541250536941583 L 65.72996536726804 17.288304070017183 Q 66.4836299935567 16.409028672680414 67.79262644974227 16.409028672680414 Q 69.22723367697594 16.409028672680414 69.75612113402062 17.50647014604811 Q 70.53623013316151 16.409028672680414 71.95100408075601 16.409028672680414 Q 73.13438976589347 16.409028672680414 73.71286042203609 17.063526900773194 Q 74.2913310781787 17.71802512886598 74.3045532646048 18.993966118986254 L 74.3045532646048 23.694453393470788 L 72.69805761383162 23.694453393470788 L 72.69805761383162 19.040243771477662 Q 72.69805761383162 18.359301170532646 72.40055841924399 18.04196869630584 Q 72.10305922465636 17.724636222079038 71.41550553049828 17.724636222079038 Q 70.86678479381443 17.724636222079038 70.51970240012886 18.018829870060138 Q 70.1726200064433 18.313023518041238 70.03378704896907 18.789022229381445 L 70.04039814218213 23.694453393470788 L 68.43390249140893 23.694453393470788 L 68.43390249140893 18.987355025773198 Q 68.40084702534364 17.724636222079038 67.14473931486255 17.724636222079038 Q 66.17951970575601 17.724636222079038 65.77624301975945 18.511356314432987 L 65.77624301975945 23.694453393470788 L 64.16974736898625 23.694453393470788 L 64.16974736898625 16.541250536941583 L 65.68368771477662 16.541250536941583 Z  M 77.46465582044674 16.541250536941583 L 77.51093347293815 17.288304070017183 Q 78.2645980992268 16.409028672680414 79.57359455541237 16.409028672680414 Q 81.00820178264604 16.409028672680414 81.53708923969072 17.50647014604811 Q 82.31719823883162 16.409028672680414 83.73197218642612 16.409028672680414 Q 84.91535787156357 16.409028672680414 85.49382852770619 17.063526900773194 Q 86.0722991838488 17.71802512886598 86.08552137027492 18.993966118986254 L 86.08552137027492 23.694453393470788 L 84.47902571950172 23.694453393470788 L 84.47902571950172 19.040243771477662 Q 84.47902571950172 18.359301170532646 84.18152652491409 18.04196869630584 Q 83.88402733032646 17.724636222079038 83.19647363616838 17.724636222079038 Q 82.64775289948454 17.724636222079038 82.30067050579896 18.018829870060138 Q 81.95358811211341 18.313023518041238 81.81475515463919 18.789022229381445 L 81.82136624785224 23.694453393470788 L 80.21487059707904 23.694453393470788 L 80.21487059707904 18.987355025773198 Q 80.18181513101375 17.724636222079038 78.92570742053265 17.724636222079038 Q 77.96048781142612 17.724636222079038 77.55721112542955 18.511356314432987 L 77.55721112542955 23.694453393470788 L 75.95071547465636 23.694453393470788 L 75.95071547465636 16.541250536941583 L 77.46465582044674 16.541250536941583 Z  M 90.88517504295532 23.826675257731956 Q 89.35801251073883 23.826675257731956 88.40932063466495 22.864761195231956 Q 87.46062875859107 21.902847132731956 87.46062875859107 20.30296257517182 L 87.46062875859107 20.10462977878007 Q 87.46062875859107 19.033632678264603 87.87382208440721 18.190718293599655 Q 88.28701541022338 17.347803908934708 89.03406894329896 16.87841629080756 Q 89.78112247637458 16.409028672680414 90.70006443298969 16.409028672680414 Q 92.1611160330756 16.409028672680414 92.95775276524914 17.341192815721648 Q 93.75438949742268 18.273356958762886 93.75438949742268 19.979019007731956 L 93.75438949742268 20.626906142611684 L 89.08034659579039 20.626906142611684 Q 89.15306862113403 21.51279263316151 89.6720394383591 22.02845790378007 Q 90.19101025558419 22.544123174398628 90.97773034793815 22.544123174398628 Q 92.0817829145189 22.544123174398628 92.77594770189003 21.65162559063574 L 93.64200091280068 22.478012242268044 Q 93.21227985395188 23.119288283934708 92.49497624033506 23.472981770833336 Q 91.77767262671821 23.826675257731956 90.88517504295532 23.826675257731956 Z  M 90.69345333977662 17.698191849226802 Q 90.0323440184708 17.698191849226802 89.6257617858677 18.160968374140893 Q 89.21917955326461 18.623744899054984 89.10679096864261 19.450131550687285 L 92.16772712628867 19.450131550687285 L 92.16772712628867 19.331131872852232 Q 92.11483838058419 18.524578500859107 91.73800606743987 18.111385175042955 Q 91.36117375429554 17.698191849226802 90.69345333977662 17.698191849226802 Z  M 98.74576487328179 18.00891323024055 Q 98.42843239905498 17.956024484536083 98.091266645189 17.956024484536083 Q 96.98721407860825 17.956024484536083 96.60377067225086 18.80224441580756 L 96.60377067225086 23.694453393470788 L 94.99727502147766 23.694453393470788 L 94.99727502147766 16.541250536941583 L 96.53104864690721 16.541250536941583 L 96.57071520618557 17.341192815721648 Q 97.15249140893471 16.409028672680414 98.18382195017182 16.409028672680414 Q 98.52759879725086 16.409028672680414 98.75237596649484 16.50158397766323 L 98.74576487328179 18.00891323024055 Z  M 102.69919861469072 22.544123174398628 Q 103.30080809707904 22.544123174398628 103.69747368986255 22.19373523410653 Q 104.09413928264604 21.843347293814432 104.12058365549828 21.327682023195877 L 105.63452400128867 21.327682023195877 Q 105.60807962843643 21.995402437714777 105.21802512886597 22.573873093857387 Q 104.82797062929554 23.15234375 104.16025021477662 23.489509503865982 Q 103.49252980025773 23.826675257731956 102.7190318943299 23.826675257731956 Q 101.21831373496565 23.826675257731956 100.33903833762886 22.85484455541237 Q 99.45976294029211 21.883013853092784 99.45976294029211 20.170740710910653 L 99.45976294029211 20.005463380584192 Q 99.45976294029211 18.372523356958762 100.33242724441581 17.390776014819586 Q 101.20509154853951 16.409028672680414 102.71242080111685 16.409028672680414 Q 103.98836179123711 16.409028672680414 104.79160961662372 17.152776659149485 Q 105.59485744201031 17.896524645618555 105.63452400128867 19.106354703608247 L 104.12058365549828 19.106354703608247 Q 104.09413928264604 18.491523034793815 103.70077923646907 18.09485744201031 Q 103.30741919029211 17.698191849226802 102.69919861469072 17.698191849226802 Q 101.91908961554984 17.698191849226802 101.49597964991409 18.2634403189433 Q 101.07286968427834 18.828688788659793 101.06625859106529 19.979019007731956 L 101.06625859106529 20.236851643041238 Q 101.06625859106529 21.40040404853952 101.48606301009451 21.972263611469074 Q 101.90586742912372 22.544123174398628 102.69919861469072 22.544123174398628 Z  M 109.99784552190721 23.826675257731956 Q 108.47068298969072 23.826675257731956 107.52199111361685 22.864761195231956 Q 106.57329923754295 21.902847132731956 106.57329923754295 20.30296257517182 L 106.57329923754295 20.10462977878007 Q 106.57329923754295 19.033632678264603 106.9864925633591 18.190718293599655 Q 107.39968588917526 17.347803908934708 108.14673942225086 16.87841629080756 Q 108.89379295532646 16.409028672680414 109.81273491194159 16.409028672680414 Q 111.2737865120275 16.409028672680414 112.07042324420104 17.341192815721648 Q 112.86705997637458 18.273356958762886 112.86705997637458 19.979019007731956 L 112.86705997637458 20.626906142611684 L 108.19301707474227 20.626906142611684 Q 108.26573910008591 21.51279263316151 108.784709917311 22.02845790378007 Q 109.30368073453609 22.544123174398628 110.09040082689003 22.544123174398628 Q 111.1944533934708 22.544123174398628 111.88861818084193 21.65162559063574 L 112.75467139175258 22.478012242268044 Q 112.32495033290378 23.119288283934708 111.60764671928695 23.472981770833336 Q 110.89034310567011 23.826675257731956 109.99784552190721 23.826675257731956 Z  M 109.80612381872852 17.698191849226802 Q 109.1450144974227 17.698191849226802 108.7384322648196 18.160968374140893 Q 108.3318500322165 18.623744899054984 108.21946144759451 19.450131550687285 L 111.28039760524055 19.450131550687285 L 111.28039760524055 19.331131872852232 Q 111.22750885953609 18.524578500859107 110.85067654639175 18.111385175042955 Q 110.47384423324743 17.698191849226802 109.80612381872852 17.698191849226802 Z " fill-rule="evenodd" fill="rgb(63,81,181)" stroke-width="1" stroke="rgba(0,0,0,0)" stroke-linejoin="miter" stroke-linecap="square"/><path d=" M 53.32755449957045 35.48203259235395 L 49.453453876718214 35.48203259235395 L 49.453453876718214 39.561077104811 L 47.78084729381443 39.561077104811 L 47.78084729381443 29.93532538659794 L 53.896108515893474 29.93532538659794 L 53.896108515893474 31.283988402061855 L 49.453453876718214 31.283988402061855 L 49.453453876718214 34.14659176331615 L 53.32755449957045 34.14659176331615 L 53.32755449957045 35.48203259235395 Z  M 54.76216172680412 35.91836474441581 Q 54.76216172680412 34.86720092353952 55.1786605992268 34.02428653887457 Q 55.59515947164948 33.181372154209626 56.34882409793814 32.72851226911512 Q 57.1024887242268 32.27565238402062 58.08093051975945 32.27565238402062 Q 59.528759933419245 32.27565238402062 60.43117415700172 33.20781652706185 Q 61.33358838058419 34.13998067010309 61.40631040592783 35.680365388745706 L 61.41292149914089 36.05719770189003 Q 61.41292149914089 37.11497261597938 61.0063392665378 37.94797036082474 Q 60.59975703393471 38.780968105670105 59.84278686103952 39.237133537371136 Q 59.085816688144334 39.69329896907217 58.09415270618557 39.69329896907217 Q 56.58021236039519 39.69329896907217 55.67118704359966 38.68510725408076 Q 54.76216172680412 37.67691553908935 54.76216172680412 35.99769786297251 L 54.76216172680412 35.91836474441581 Z  M 56.36865737757732 36.05719770189003 Q 56.36865737757732 37.161250268470795 56.82482280927835 37.78599857710481 Q 57.28098824097938 38.41074688573883 58.09415270618557 38.41074688573883 Q 58.90731717139175 38.41074688573883 59.36017705648625 37.77608193728523 Q 59.813036941580755 37.141416988831615 59.813036941580755 35.91836474441581 Q 59.813036941580755 34.83414545747423 59.34695487006014 34.19948050902062 Q 58.88087279853952 33.56481556056701 58.08093051975945 33.56481556056701 Q 57.294210427405496 33.56481556056701 56.83143390249141 34.18956386920103 Q 56.36865737757732 34.81431217783505 56.36865737757732 36.05719770189003 Z  M 65.71013208762886 38.41074688573883 Q 66.31174157001718 38.41074688573883 66.70840716280068 38.06035894544674 Q 67.10507275558419 37.70997100515464 67.13151712843643 37.19430573453609 L 68.6454574742268 37.19430573453609 Q 68.61901310137458 37.862026149054984 68.22895860180412 38.4404968051976 Q 67.83890410223367 39.01896746134021 67.17118368771477 39.356133215206185 Q 66.50346327319588 39.69329896907217 65.72996536726804 39.69329896907217 Q 64.22924720790378 39.69329896907217 63.34997181056701 38.72146826675258 Q 62.47069641323024 37.74963756443299 62.47069641323024 36.03736442225086 L 62.47069641323024 35.8720870919244 Q 62.47069641323024 34.23914706829897 63.34336071735395 33.25739972615979 Q 64.21602502147766 32.27565238402062 65.72335427405498 32.27565238402062 Q 66.99929526417526 32.27565238402062 67.80254308956185 33.01940037048969 Q 68.60579091494846 33.763148356958766 68.6454574742268 34.97297841494846 L 67.13151712843643 34.97297841494846 Q 67.10507275558419 34.358146746134025 66.71171270940721 33.96148115335052 Q 66.31835266323024 33.56481556056701 65.71013208762886 33.56481556056701 Q 64.93002308848797 33.56481556056701 64.50691312285224 34.130064030283506 Q 64.0838031572165 34.6953125 64.07719206400344 35.84564271907217 L 64.07719206400344 36.103475354381445 Q 64.07719206400344 37.267027759879724 64.49699648303265 37.83888732280928 Q 64.91680090206185 38.41074688573883 65.71013208762886 38.41074688573883 Z  M 74.19216467998282 38.8603012242268 Q 73.48477770618557 39.69329896907217 72.18239234321305 39.69329896907217 Q 71.01883993771477 39.69329896907217 70.42053600193299 39.01235636812714 Q 69.8222320661512 38.33141376718213 69.8222320661512 37.04225059063574 L 69.8222320661512 32.407874248281786 L 71.4287277169244 32.407874248281786 L 71.4287277169244 37.02241731099656 Q 71.4287277169244 38.3843025128866 72.55922465635739 38.3843025128866 Q 73.72938815506873 38.3843025128866 74.13927593427834 37.54469367482818 L 74.13927593427834 32.407874248281786 L 75.74577158505154 32.407874248281786 L 75.74577158505154 39.561077104811 L 74.23183123926117 39.561077104811 L 74.19216467998282 38.8603012242268 Z  M 81.39164518900344 37.61741570017182 Q 81.39164518900344 37.18769464132302 81.0379517021048 36.96291747207904 Q 80.68425821520619 36.73814030283505 79.86448265678695 36.566251879295535 Q 79.0447070983677 36.394363455756015 78.49598636168385 36.12991972723368 Q 77.29276739690721 35.54814352448454 77.29276739690721 34.44409095790378 Q 77.29276739690721 33.5185379080756 78.07287639604812 32.89709514604811 Q 78.852985395189 32.27565238402062 80.05620435996563 32.27565238402062 Q 81.33875644329896 32.27565238402062 82.12878208225945 32.91031733247423 Q 82.91880772121993 33.54498228092784 82.91880772121993 34.55647954252578 L 81.31231207044674 34.55647954252578 Q 81.31231207044674 34.09370301761169 80.9685352233677 33.786287183204465 Q 80.62475837628867 33.478871348797256 80.05620435996563 33.478871348797256 Q 79.52731690292097 33.478871348797256 79.19345669566151 33.723481797680414 Q 78.85959648840206 33.96809224656357 78.85959648840206 34.3779800257732 Q 78.85959648840206 34.748201245704465 79.17031786941581 34.95314513530928 Q 79.48103925042955 35.15808902491409 80.42642557989691 35.36633846112543 Q 81.37181190936425 35.57458789733677 81.91061600622852 35.86217045210481 Q 82.44942010309279 36.14975300687286 82.7105582850086 36.553029692869416 Q 82.9716964669244 36.95630637886598 82.9716964669244 37.53147148840206 Q 82.9716964669244 38.49669109750859 82.17175418814433 39.094995033290374 Q 81.37181190936425 39.69329896907217 80.0760376396048 39.69329896907217 Q 79.19676224226805 39.69329896907217 78.50920854810997 39.37596649484536 Q 77.82165485395188 39.058634020618555 77.4382114475945 38.503302190721655 Q 77.05476804123711 37.94797036082474 77.05476804123711 37.306694319158076 L 78.6149860395189 37.306694319158076 Q 78.64804150558419 37.8752483354811 79.0447070983677 38.18266416988831 Q 79.4413726911512 38.490080004295535 80.09587091924399 38.490080004295535 Q 80.7305358676976 38.490080004295535 81.06109052835052 38.2487751020189 Q 81.39164518900344 38.00747019974227 81.39164518900344 37.61741570017182 Z  M 87.5201285975086 39.69329896907217 Q 85.9929660652921 39.69329896907217 85.04427418921821 38.73138490657217 Q 84.09558231314433 37.76947084407217 84.09558231314433 36.16958628651203 L 84.09558231314433 35.971253490120276 Q 84.09558231314433 34.90025638960481 84.50877563896049 34.05734200493986 Q 84.92196896477662 33.21442762027492 85.66902249785224 32.74504000214777 Q 86.41607603092783 32.27565238402062 87.33501798754295 32.27565238402062 Q 88.79606958762886 32.27565238402062 89.5927063198024 33.20781652706185 Q 90.38934305197594 34.13998067010309 90.38934305197594 35.84564271907217 L 90.38934305197594 36.49352985395189 L 85.71530015034364 36.49352985395189 Q 85.78802217568729 37.37941634450172 86.30699299291237 37.895081615120276 Q 86.82596381013747 38.41074688573883 87.61268390249141 38.41074688573883 Q 88.71673646907217 38.41074688573883 89.41090125644331 37.51824930197594 L 90.27695446735396 38.34463595360825 Q 89.84723340850516 38.98591199527492 89.12992979488831 39.33960548217354 Q 88.41262618127148 39.69329896907217 87.5201285975086 39.69329896907217 Z  M 87.3284068943299 33.56481556056701 Q 86.66729757302406 33.56481556056701 86.26071534042097 34.0275920854811 Q 85.85413310781787 34.490368610395194 85.74174452319588 35.31675526202749 L 88.80268068084192 35.31675526202749 L 88.80268068084192 35.197755584192436 Q 88.74979193513747 34.39120221219932 88.37295962199312 33.978008886383165 Q 87.9961273088488 33.56481556056701 87.3284068943299 33.56481556056701 Z  M 91.33472938144331 35.931586930841924 Q 91.33472938144331 34.27881362757732 92.10161619415808 33.27723300579897 Q 92.86850300687286 32.27565238402062 94.15766618341925 32.27565238402062 Q 95.29477421606529 32.27565238402062 95.99555009664948 33.06898356958763 L 95.99555009664948 29.406437929553263 L 97.60204574742268 29.406437929553263 L 97.60204574742268 39.561077104811 L 96.14760524054984 39.561077104811 L 96.06827212199312 38.82063466494846 Q 95.34766296176977 39.69329896907217 94.14444399699312 39.69329896907217 Q 92.88833628651203 39.69329896907217 92.11153283397766 38.68180170747423 Q 91.33472938144331 37.67030444587629 91.33472938144331 35.931586930841924 Z  M 92.9412250322165 36.07041988831615 Q 92.9412250322165 37.161250268470795 93.36102945124571 37.77277639067869 Q 93.78083387027492 38.3843025128866 94.55433177620276 38.3843025128866 Q 95.53938466494846 38.3843025128866 95.99555009664948 37.50502711554983 L 95.99555009664948 34.450702051116835 Q 95.55260685137458 33.591259933419245 94.56755396262886 33.591259933419245 Q 93.78744496348797 33.591259933419245 93.36433499785224 34.20939714884021 Q 92.9412250322165 34.82753436426117 92.9412250322165 36.07041988831615 Z " fill-rule="evenodd" fill="rgb(0,188,212)" stroke-width="1" stroke="rgba(0,0,0,0)" stroke-linejoin="miter" stroke-linecap="square"/></svg>