<?xml version="1.0" standalone="no"?><!-- Generator: Gravit.io --><svg xmlns="http://www.w3.org/2000/svg" xmlns:xlink="http://www.w3.org/1999/xlink" style="isolation:isolate" viewBox="366.6666666666667 256.25 66.66666666666669 87.5" width="66.66666666666669" height="87.5"><path d=" M 433.33333333333337 343.75 L 366.6666666666667 343.75 L 366.6666666666667 256.25 L 412.5 256.25 L 433.33333333333337 277.0833333333333 L 433.33333333333337 343.75 Z " fill="rgb(255,87,34)" stroke-width="2.083333333333334" stroke="rgba(0,0,0,0)" stroke-linejoin="miter" stroke-linecap="butt"/><path d=" M 430.20833333333337 279.1666666666667 L 410.4166666666667 279.1666666666667 L 410.4166666666667 259.375 L 430.20833333333337 279.1666666666667 Z " fill="rgb(251,233,231)" stroke-width="2.083333333333334" stroke="rgba(0,0,0,0)" stroke-linejoin="miter" stroke-linecap="butt"/><path d=" M 382.9375 311.4583333333333 L 382.9375 318.75 L 378.75 318.75 L 378.75 298.01458333333335 L 385.81458333333336 298.01458333333335 C 387.86458333333337 298.01458333333335 389.50208333333336 298.65208333333334 390.72083333333336 299.92291666666665 C 391.93958333333336 301.19375 392.55 302.84583333333336 392.55 304.87916666666666 C 392.55 306.9125 391.9458333333333 308.51458333333335 390.7416666666667 309.69375 C 389.5375 310.8729166666667 387.8645833333333 311.4583333333333 385.7270833333333 311.4583333333333 L 382.9375 311.4583333333333 Z  M 382.9375 307.96875 L 385.8145833333333 307.96875 C 386.6125 307.96875 387.2291666666667 307.7083333333333 387.6666666666667 307.1854166666667 C 388.1041666666667 306.6625 388.3208333333333 305.9041666666667 388.3208333333333 304.90625 C 388.3208333333333 303.87083333333334 388.09791666666666 303.04791666666665 387.65208333333334 302.43333333333334 C 387.20625 301.8229166666667 386.60833333333335 301.5125 385.85833333333335 301.5020833333333 L 382.9375 301.5020833333333 L 382.9375 307.96875 Z " fill-rule="evenodd" fill="rgb(255,235,238)" stroke-width="2.083333333333334" stroke="rgba(0,0,0,0)" stroke-linejoin="miter" stroke-linecap="butt"/><path d=" M 395.3416666666667 318.75 L 395.3416666666667 298.01458333333335 L 400.825 298.01458333333335 C 403.24583333333334 298.01458333333335 405.1770833333333 298.78333333333336 406.6125 300.3208333333333 C 408.0520833333333 301.85833333333335 408.78541666666666 303.9666666666667 408.8145833333333 306.64375 L 408.8145833333333 310.00416666666666 C 408.8145833333333 312.7291666666667 408.09375 314.86875 406.6583333333333 316.41875 C 405.2166666666667 317.975 403.23541666666665 318.75 400.7104166666667 318.75 L 395.3416666666667 318.75 Z  M 399.52708333333334 301.50416666666666 L 399.52708333333334 315.275 L 400.78125 315.275 C 402.17708333333337 315.275 403.16041666666666 314.90625 403.7291666666667 314.17083333333335 C 404.29791666666665 313.4354166666667 404.59791666666666 312.1666666666667 404.62708333333336 310.3625 L 404.62708333333336 306.7604166666667 C 404.62708333333336 304.8229166666667 404.35625 303.47291666666666 403.81458333333336 302.7104166666667 C 403.2729166666667 301.9458333333333 402.3520833333333 301.54375 401.0520833333333 301.50625 L 399.52708333333334 301.50625 L 399.52708333333334 301.50416666666666 Z " fill-rule="evenodd" fill="rgb(255,235,238)" stroke-width="2.083333333333334" stroke="rgba(0,0,0,0)" stroke-linejoin="miter" stroke-linecap="butt"/><path d=" M 422.51458333333335 310.2895833333333 L 416.00625 310.2895833333333 L 416.00625 318.75 L 411.81875 318.75 L 411.81875 298.01458333333335 L 423.29791666666665 298.01458333333335 L 423.29791666666665 301.50416666666666 L 416.00625 301.50416666666666 L 416.00625 306.81666666666666 L 422.51458333333335 306.81666666666666 L 422.51458333333335 310.2895833333333 Z " fill="rgb(255,235,238)" stroke-width="2.083333333333334" stroke="rgba(0,0,0,0)" stroke-linejoin="miter" stroke-linecap="butt"/></svg>